# xmcd
#
# Track frame offsets: 
#        150
#        17182
#        28654
#        42041
#        57941
#        74668
#        89803
#        110360
#        127583
#        142577
#        162794
#        183438
#        202065
#        215924
#
# Disc length: 3157 seconds
#
# Revision: 4
# Processed by: cddbd v1.5.2PL0 Copyright (c) Steve Scherf et al.
# Submitted via: ExactAudioCopyFreeDBPlugin 1.0
#
DISCID=c80c530e
DTITLE=Johnny Hoy and The Bluefish - Film Noir Angel
DYEAR=2006
DGENRE=Blues
TTITLE0=Old Black Joe
TTITLE1=Sally Sue Brown
TTITLE2=Film Noir Angel
TTITLE3=Don't Put No Headstone On My Grave
TTITLE4=All You Ever Do Is Bring Me Down
TTITLE5=Throw Down Your Hammer
TTITLE6=Sloop John B
TTITLE7=Cadillac
TTITLE8=You Win Again
TTITLE9=Shack In The Back
TTITLE10=High Temperature
TTITLE11=Hip Shakin'
TTITLE12=Nothin' But The Devil
TTITLE13=Big Stacka Darlin'
EXTD=
EXTT0=
EXTT1=
EXTT2=
EXTT3=
EXTT4=
EXTT5=
EXTT6=
EXTT7=
EXTT8=
EXTT9=
EXTT10=
EXTT11=
EXTT12=
EXTT13=
PLAYORDER=
